<mxfile host="app.diagrams.net" modified="2020-10-29T13:57:31.957Z" agent="5.0 (X11)" etag="62NruRZ39KHuu2cL6HXo" version="13.8.7" type="github">
  <diagram name="Page-1" id="2c0d36ab-eaac-3732-788b-9136903baeff">
    <mxGraphModel dx="1929" dy="1149" grid="1" gridSize="10" guides="1" tooltips="1" connect="1" arrows="1" fold="1" page="1" pageScale="1.5" pageWidth="1169" pageHeight="827" background="#ffffff" math="0" shadow="0">
      <root>
        <mxCell id="0" />
        <mxCell id="1" parent="0" />
        <mxCell id="122" value="" style="fillColor=#10739E;strokeColor=none;opacity=30;" parent="1" vertex="1">
          <mxGeometry x="97" y="220" width="1623" height="400" as="geometry" />
        </mxCell>
        <mxCell id="2" value="LIME" style="rounded=1;fillColor=#23445D;gradientColor=none;strokeColor=none;fontColor=#FFFFFF;fontStyle=1;fontFamily=Tahoma;fontSize=14" parent="1" vertex="1">
          <mxGeometry x="800" y="110" width="190" height="90" as="geometry" />
        </mxCell>
        <mxCell id="4" value="ECOMMERCE" style="rounded=1;fillColor=#f8cecc;strokeColor=#b85450;fontStyle=1;fontFamily=Tahoma;fontSize=14" parent="1" vertex="1">
          <mxGeometry x="839.9999999999998" y="335.5" width="190" height="80" as="geometry" />
        </mxCell>
        <mxCell id="10" value="DASHBOARD" style="rounded=1;fillColor=#f8cecc;strokeColor=#b85450;fontStyle=1;fontFamily=Tahoma;fontSize=14" parent="1" vertex="1">
          <mxGeometry x="610" y="335.5" width="190" height="80" as="geometry" />
        </mxCell>
        <mxCell id="12" value="CRM" style="rounded=1;fillColor=#ffe6cc;strokeColor=#d79b00;fontStyle=1;fontFamily=Tahoma;fontSize=14" parent="1" vertex="1">
          <mxGeometry x="356.9999999999999" y="335.5" width="190" height="80" as="geometry" />
        </mxCell>
        <mxCell id="13" value="CMS" style="rounded=1;fillColor=#ffe6cc;strokeColor=#d79b00;fontStyle=1;fontFamily=Tahoma;fontSize=14" parent="1" vertex="1">
          <mxGeometry x="120" y="335.5" width="190" height="80" as="geometry" />
        </mxCell>
        <mxCell id="89L2WJdvNjUM9Jiq0uri-128" value="IMPORTER" style="rounded=1;fillColor=#d5e8d4;strokeColor=#82b366;fontStyle=1;fontFamily=Tahoma;fontSize=14" vertex="1" parent="1">
          <mxGeometry x="1049.9999999999998" y="335.5" width="190" height="80" as="geometry" />
        </mxCell>
        <mxCell id="89L2WJdvNjUM9Jiq0uri-130" value="MAIL" style="rounded=1;fillColor=#d5e8d4;strokeColor=#82b366;fontStyle=1;fontFamily=Tahoma;fontSize=14" vertex="1" parent="1">
          <mxGeometry x="1259.9999999999998" y="335.5" width="190" height="80" as="geometry" />
        </mxCell>
        <mxCell id="89L2WJdvNjUM9Jiq0uri-131" value="PRODUCTS" style="rounded=1;fillColor=#d5e8d4;strokeColor=#82b366;fontStyle=1;fontFamily=Tahoma;fontSize=14" vertex="1" parent="1">
          <mxGeometry x="1469.9999999999998" y="335.5" width="190" height="80" as="geometry" />
        </mxCell>
        <mxCell id="89L2WJdvNjUM9Jiq0uri-132" value="OCEANO" style="rounded=1;fillColor=#ffe6cc;strokeColor=#d79b00;fontStyle=1;fontFamily=Tahoma;fontSize=14" vertex="1" parent="1">
          <mxGeometry x="120" y="450" width="190" height="80" as="geometry" />
        </mxCell>
        <mxCell id="89L2WJdvNjUM9Jiq0uri-133" value="REQUESTER" style="rounded=1;fillColor=#d5e8d4;strokeColor=#82b366;fontStyle=1;fontFamily=Tahoma;fontSize=14" vertex="1" parent="1">
          <mxGeometry x="357" y="450" width="190" height="80" as="geometry" />
        </mxCell>
        <mxCell id="89L2WJdvNjUM9Jiq0uri-134" value="USER" style="rounded=1;fillColor=#d5e8d4;strokeColor=#82b366;fontStyle=1;fontFamily=Tahoma;fontSize=14" vertex="1" parent="1">
          <mxGeometry x="610" y="450" width="190" height="80" as="geometry" />
        </mxCell>
        <mxCell id="89L2WJdvNjUM9Jiq0uri-135" value="PLATFORM&#xa;CONNECTORS&#xa;" style="rounded=1;fillColor=#f8cecc;strokeColor=#b85450;fontStyle=1;fontFamily=Tahoma;fontSize=14" vertex="1" parent="1">
          <mxGeometry x="840" y="450" width="200" height="80" as="geometry" />
        </mxCell>
      </root>
    </mxGraphModel>
  </diagram>
</mxfile>
